<?xml version="1.0" standalone="no"?>
<!DOCTYPE svg PUBLIC "-//W3C//DTD SVG 20010904//EN"
 "http://www.w3.org/TR/2001/REC-SVG-20010904/DTD/svg10.dtd">
<svg version="1.0" xmlns="http://www.w3.org/2000/svg"
 width="700.000000pt" height="700.000000pt" viewBox="0 0 700.000000 700.000000"
 preserveAspectRatio="xMidYMid meet">
<metadata>
Created by potrace 1.11, written by Peter Selinger 2001-2013
</metadata>
<g transform="translate(0.000000,700.000000) scale(0.100000,-0.100000)"
fill="#000000" stroke="none">
<path d="M3278 6996 c-1 -2 -42 -6 -89 -10 -47 -4 -95 -8 -105 -10 -10 -2 -45
-7 -78 -11 -71 -8 -85 -11 -211 -37 -1106 -227 -2042 -984 -2499 -2021 -79
-180 -156 -405 -192 -557 -40 -174 -66 -313 -79 -430 -28 -238 -28 -638 0
-837 10 -67 14 -99 20 -148 4 -27 10 -66 15 -85 5 -19 12 -48 14 -65 80 -446
328 -990 640 -1400 151 -199 377 -436 545 -571 13 -10 28 -24 35 -29 51 -48
406 -295 422 -295 2 0 23 -12 46 -26 60 -38 299 -156 401 -198 160 -66 433
-153 571 -182 88 -19 210 -41 271 -49 22 -2 56 -7 75 -10 187 -26 697 -27 838
0 16 3 104 15 147 20 61 8 206 40 322 70 632 168 1202 505 1647 974 76 81 76
80 152 171 98 118 294 387 294 404 0 2 19 35 42 72 222 365 402 900 454 1349
4 33 9 76 11 95 8 71 10 517 3 595 -17 172 -22 220 -25 225 -2 3 -6 30 -10 60
-7 56 -59 300 -75 355 -127 417 -241 670 -445 990 -42 65 -190 269 -229 313
-13 15 -43 50 -66 77 -126 149 -341 353 -490 464 -41 31 -77 58 -80 62 -12 13
-201 139 -280 186 -368 220 -855 397 -1230 448 -19 3 -46 7 -60 10 -13 2 -52
7 -86 11 -33 3 -74 8 -90 10 -33 5 -540 14 -546 10z m505 -420 c26 -3 68 -8
95 -11 535 -61 1106 -299 1528 -637 122 -98 140 -113 284 -258 405 -404 676
-889 815 -1460 13 -52 26 -115 30 -140 4 -25 9 -52 10 -60 17 -98 21 -125 32
-245 14 -158 8 -529 -11 -630 -2 -11 -7 -46 -11 -79 -41 -340 -191 -772 -385
-1106 -83 -145 -239 -362 -340 -475 -73 -82 -267 -274 -330 -326 -36 -30 -67
-56 -70 -59 -8 -9 -152 -114 -200 -147 -163 -111 -527 -303 -572 -303 -8 0
-18 -4 -24 -9 -13 -14 -262 -95 -384 -126 -104 -26 -223 -50 -310 -61 -25 -3
-56 -7 -70 -10 -111 -19 -470 -25 -630 -11 -446 40 -844 161 -1240 379 -167
92 -372 235 -525 368 -87 74 -304 300 -376 390 -278 347 -470 727 -587 1160
-22 79 -56 252 -67 333 -4 27 -8 57 -10 67 -26 135 -26 555 0 760 13 104 40
253 56 315 6 22 12 47 14 55 20 101 106 356 162 480 112 249 234 455 392 660
89 115 115 144 266 295 122 122 171 167 270 245 22 17 48 38 59 46 10 9 62 44
115 79 53 36 101 68 107 72 28 22 212 121 304 165 229 109 512 200 750 242
170 31 175 31 315 42 50 4 91 8 93 9 6 5 398 -3 445 -9z"/>
<path d="M1820 4320 c-230 -40 -223 -379 8 -405 20 -2 80 -7 132 -10 474 -29
927 -321 1157 -745 65 -121 126 -288 147 -405 3 -17 8 -41 11 -55 5 -27 12
-102 19 -211 5 -78 23 -123 62 -162 42 -43 80 -59 138 -59 96 -1 174 54 199
140 16 53 12 227 -7 337 -2 11 -7 38 -11 60 -4 22 -14 67 -22 100 -8 33 -16
65 -17 70 -19 100 -142 372 -226 500 -134 205 -308 384 -498 516 -271 188
-583 300 -902 324 -132 10 -154 11 -190 5z"/>
<path d="M5108 4325 c-2 -1 -46 -5 -98 -9 -294 -19 -582 -113 -836 -271 -148
-94 -255 -181 -383 -317 l-33 -36 44 -74 c52 -85 133 -251 143 -290 10 -40 25
-34 67 25 137 190 392 379 632 466 118 43 154 53 264 70 112 17 134 20 207 22
80 2 136 22 179 65 102 102 59 290 -76 333 -34 10 -105 21 -110 16z"/>
</g>
</svg>
